<?xml version="1.0" encoding="UTF-8"?>
<svg id="Capa_2" data-name="Capa 2" xmlns="http://www.w3.org/2000/svg" viewBox="0 0 993.27 313.7">
  <defs>
    <style>
      .cls-1 {
        fill: #fff;
        stroke-width: 0px;
      }
    </style>
  </defs>
  <g id="Capa_1-2" data-name="Capa 1">
    <path class="cls-1" d="M64.41,313.7c-2.22-.8-4.39-1.82-6.68-2.36-23.89-5.59-40.72-19.32-49.43-42.57-2.03-5.43-5.18-10.59-6.27-16.18-1.67-8.53-3.6-17.34.04-25.98,4.66-11.07,9.23-22.17,14.01-33.19,5.21-12.02,10.61-23.95,15.91-35.92,6.23-14.06,12.46-28.12,18.68-42.18,9.92-22.39,19.4-45,29.89-67.12,9.39-19.79,26.01-30.92,47.31-34.66,8.76-1.54,17.78-1.98,26.7-2.1,21.71-.29,43.43-.09,65.86-.09-2.5,5.64-4.77,10.9-7.16,16.12-3.44,7.55-7.11,15-10.38,22.62-1.23,2.86-2.87,3.75-5.87,3.72-17.17-.12-34.36.39-51.51-.18-17.24-.58-25.6,8.37-31.42,23.14-5.94,15.07-11.81,30.18-18.16,45.08-7.76,18.23-16.07,36.22-24.01,54.37-8.93,20.43-17.81,40.89-26.44,61.46-1.05,2.49-1.2,5.94-.39,8.52,3.03,9.74,7.88,18.46,17.5,23.21,2.67,1.32,5.94,1.98,8.94,2,31.74.14,63.48.09,95.22.09h4.85c-2.57,5.75-4.94,11.14-7.38,16.51-3.28,7.21-6.64,14.37-9.87,21.6-.56,1.25-.65,2.71-.95,4.08h-88.99Z"/>
    <path class="cls-1" d="M336.57,59.62c2.41-5.63,4.52-10.73,6.77-15.75,4.04-8.99,8.27-17.89,12.19-26.92,1.06-2.45,2.42-3.21,4.98-3.2,18.6.06,37.21-.04,55.81-.05,28.1-.02,56.21-.28,84.31.09,20.48.27,36.25,9.69,45.95,27.74,14.47,26.91,8.92,61.49-14.04,81.87-9.35,8.3-20.16,13.62-33.18,12.99-4.01-.19-8.04-.03-12.86-.03.69,1.72.97,3.03,1.67,4.06,14.1,20.85,28.25,41.66,42.38,62.48,2.12,3.12,4.18,6.27,6.29,9.39,1.38,2.04,2.56,3.14,3.92-.18,7.25-17.72,14.6-35.4,21.95-53.08,8.3-19.96,16.65-39.9,24.95-59.86,4.91-11.8,9.78-23.61,14.64-35.43.48-1.16.75-2.39,1.33-4.29h-40.55c1.76-4.17,3.1-7.54,4.59-10.85,4.97-11.02,10.01-22.01,14.97-33.04.83-1.84,1.79-2.87,4.05-2.73,3.5.22,7.02.05,10.54.05,43.45-.1,86.9-.25,130.34-.27,16.72,0,31.3,5.52,42.59,18.15,7.76,8.68,12.17,19.07,13.99,30.58,3,18.9-.62,36.34-11.58,52.1-7.41,10.65-17.16,18.36-29.69,22.08-3.51,1.04-7.32,1.49-10.99,1.5-29.92.12-59.85.04-89.77.1-4.15,0-8.39-.03-12.39.84-1.78.39-3.64,2.74-4.49,4.64-4.35,9.68-8.38,19.49-12.53,29.26-10.36,24.38-20.64,48.8-31.1,73.14-7.96,18.53-16.13,36.98-24.23,55.46-1.5,3.42-3.18,6.77-4.61,10.22-1.01,2.43-2.83,2.68-5.07,2.51-9.03-.7-18.07-1.41-27.11-2.01-6.7-.44-13.4-.7-20.67-1.07,3.82-9.35,7.42-18.15,11.03-26.95,1.57-3.83,3.45-7.57,4.65-11.52.5-1.65.22-4.16-.75-5.55-10.09-14.45-20.36-28.78-30.64-43.09-10.98-15.28-22.03-30.51-33.04-45.77-5.39-7.47-10.71-14.99-16.13-22.44-1.18-1.63-2.68-3.02-4.71-5.28-1.64,3.69-3.06,6.51-4.17,9.44-10.53,27.62-20.81,55.33-31.64,82.83-2.58,6.55-1.93,13.23-3.1,19.8-1.92,10.79-3.76,21.6-6.01,32.28,1.21-15.8,2.42-31.6,3.7-48.31h-43.52c2.32-5.78,4.18-10.51,6.1-15.22,7.88-19.31,15.78-38.61,23.62-57.93.3-.74.29-1.79.02-2.55-3.76-10.49-7.6-20.96-11.42-31.44-1.06-2.89-2.73-1.85-4.61-.86-15.04,7.95-28.47,18.26-41.85,28.64-13.05,10.13-27.47,18.02-41.86,26.01-5.65,3.14-10.83,7.11-16.37,10.46-4.18,2.53-8.68,4.51-12.86,7.02-4.87,2.92-5.99,8.31-7.63,13.12-5.24,15.33-7.04,31.28-7.37,47.38-.27,13-.05,26.01-.05,39.57-4.13,0-8.37,0-12.62,0-5.59,0-11.19-.09-16.78.04-2.24.05-3.4-.7-4.47-2.75-8.29-15.89-16.69-31.73-25.18-47.52-4.08-7.58-13.04-10.85-23.03-8.82-9.77,1.99-19.55,3.89-29.33,5.79-1,.2-2.06.14-3.84.24,2.34-2.56,4.28-4.67,6.21-6.79,6.45-7.06,11.88-15.23,20.82-19.59,2.35-1.15,4.99-1.83,7.57-2.34,5.3-1.06,10.62-2.02,15.98-2.67,2.17-.26,4.77-.23,6.6.74,3.05,1.63,5.87,3.39,8.68.25,2.09-2.34,1.6-6.66-2.3-9.04-.42-.26-.7-.74-1.76-1.89,2.03,0,3.33.06,4.62-.01,3.01-.17,6.14,0,8.99-.79,1.36-.38,2.36-2.56,3.2-4.1.66-1.2.86-2.66,1.18-4.03.49-2.1,1.7-4.43,1.19-6.27-1.13-4.09.84-5.56,3.87-7.52,12.41-8.07,25.97-12.79,40.49-14.98,10.8-1.63,20.58-6.19,30.37-10.67,17.34-7.94,34.63-15.98,51.91-24.04,3.41-1.59,6.73-3.39,10.01-5.22,3.68-2.06,6.48-4.6,7.46-9.22,1.04-4.93,3.27-9.5,8.1-12.28,1.06-.61,1.36-2.54,2.01-3.86-1.5,0-3.28-.52-4.46.09-13.71,7.12-27.26,14.56-41,21.63-21.21,10.91-42.53,21.61-63.8,32.39-.74.37-1.53.65-2.54.45,6.76-3.8,13.49-7.64,20.29-11.38,14.77-8.12,29.54-16.25,44.37-24.26,13.12-7.09,26.31-14.06,39.49-21.03,4.93-2.6,4.97-2.53,2.25-7.3-17.55-30.85-40.27-57.25-68.29-79-10.77-8.36-22.25-15.69-34.69-21.42-.78-.36-1.45-.97-2.16-1.47.19-.37.38-.74.57-1.11,9.54,4.78,19.36,9.1,28.58,14.43,23.87,13.82,44.13,31.96,60.98,53.74,8.07,10.43,15.22,21.57,22.65,32.48,1.65,2.42,3.08,3.51,5.92,1.79,2.2-1.34,4.67-2.25,7.05-3.27,2.66-1.14,3.9-2.47.12-4.9,5.21-.68,9.74-1.27,14.67-1.92-3.31,3.47-6.39,6.7-9.58,10.05-.56-.86-1.02-2.37-1.83-2.59-.87-.24-2.13.65-3.12,1.2-2.27,1.26-4.62,2.45-6.65,4.03-.9.7-1.12,2.27-1.65,3.45,1.23.3,2.56,1.05,3.67.81,4.23-.92,6.22-.25,7.8,3.41,2.11,4.86,4.07,9.78,6.08,14.64-.18.29-.27.6-.46.71-5.74,3.1-5.78,3.12-3.49,9.41,2.17,5.98,4.39,11.94,6.68,17.87.33.85,1.2,1.5,1.82,2.24.62-.73,1.47-1.36,1.81-2.2,7.01-16.98,14.05-33.95,20.91-50.99,4.38-10.87,4.26-10.91,16.02-10.91,22.37,0,44.75-.12,67.12.07,7.29.06,10.56-.91,13.95-10.05,2.84-7.67.77-16.52-5.54-20.59-3.03-1.96-7.22-2.88-10.91-2.94-18.21-.29-36.43-.11-54.64-.14-29.53-.04-59.06-.11-88.6-.17-1.04,0-2.07,0-4.04,0ZM639.05,93.6c2.1,0,3.35,0,4.6,0,25.24.04,50.48.14,75.71,0,2.08-.01,4.58-1.24,6.14-2.7,5.47-5.1,5.96-11.7,4.91-18.7-.93-6.18-4.72-9.91-10.31-11.42-3.93-1.06-8.21-1.12-12.33-1.09-8.3.07-16.6.66-24.91.73-7.14.06-14.31-.02-21.42-.59-4.98-.4-7.87,1.02-9.73,5.88-2.36,6.17-5.55,12.01-8.33,18.02-1.39,3.01-2.67,6.07-4.34,9.88Z"/>
    <path class="cls-1" d="M824.13,310c-7.02,0-14.05-.05-21.07,0-19.96.16-36.97-7.1-51.03-20.99-4.23-4.18-7.91-9.27-10.65-14.55-4.1-7.9-7.98-16.12-10.4-24.65-1.87-6.6-2.45-14.02-1.61-20.83.78-6.35,3.85-12.53,6.47-18.54,11.89-27.2,23.97-54.31,35.98-81.46,11.91-26.92,23.55-53.97,35.8-80.73,9.61-21,26.51-32.91,49.2-36.49,5.46-.86,11.05-1.05,16.59-1.15,15.47-.27,30.94-.47,46.41-.43,20.42.06,38.06,7.25,52.24,22,6.14,6.39,9.74,14.53,13.45,22.59,4.73,10.29,7.9,20.74,7.74,32.17-.11,8.19-3.61,15.26-6.77,22.44-17.58,39.91-35.23,79.79-52.86,119.68-6.43,14.56-12.5,29.3-19.41,43.62-9.65,19.99-25.99,32.03-47.74,35.3-13.92,2.09-28.19,1.92-42.3,2.77l-.04-.76ZM826.28,267.45s0-.09,0-.14c8.71,0,17.43.04,26.14-.03,2.19-.02,4.44-.14,6.57-.62,9.03-2.07,14.48-8.47,18.16-16.33,2.74-5.84,4.23-12.26,6.8-18.2,7.86-18.22,16.07-36.29,23.96-54.51,12.85-29.68,25.29-59.53,38.5-89.04,2.73-6.1,2.3-11.11-.04-16.63-.86-2.03-1.83-4.04-3.01-5.9-5.62-8.88-12.91-14.47-24.24-14.09-17.39.58-34.82.22-52.22.8-4.03.13-8.53,1.64-11.84,3.93-5.95,4.11-10.03,10.12-12.4,17.08-1.54,4.52-2.64,9.22-4.53,13.58-5.08,11.74-10.59,23.3-15.71,35.03-7.11,16.26-14,32.62-21.02,48.92-8.44,19.62-16.99,39.19-25.32,58.85-1.38,3.25-2.96,6.97-2.61,10.28.72,6.75,4.01,12.79,8.31,18.07,3.93,4.83,8.76,8.68,15.25,8.88,9.74.29,19.5.08,29.26.08Z"/>
    <path class="cls-1" d="M163.31,195.38c-2.59-7.77-9.27-11.55-14.62-16.55-4.82-4.51-10.37-8.54-12.33-15.23-2.86-9.8,2.92-22.12,12.26-26.45,2.93-1.36,6.02-2.48,9.15-3.25,10.18-2.48,18.89,1.77,22.68,11.53,2.38,6.11,3.84,12.57,5.71,18.88.04.12,0,.28.07.38,6.55,10,5.41,21.26,5.35,32.35-.01,2.53,2.05,5.35-1.18,7.59-1.33-.42-2.79-.87-4.33-1.36,5.19-4.31,4.73-8.84-.96-12.12-5.03-2.9-9.92-2.35-14.79.26-2.17,1.16-4.29,2.43-7.01,3.98Z"/>
    <path class="cls-1" d="M184.15,197.17c-1.48-.23-2.56-.39-4.1-.63-.28,3.56-.54,6.9-.82,10.38,3.01.82,5.92,1.62,8.83,2.41-6.27.25-12.28.92-17.64,4.28-1.12.7-2.03,1.75-3.03,2.64,1.03.59,2.05,1.17,3.07,1.76.87.5,1.73,1.01,1.83,1.07-2.94.64-6.35,1.59-9.81,2.07-4.81.67-9.67.93-14.49,1.48-1.5.17-3.07.48-4.41,1.12-7.63,3.65-13.69,9.21-19.25,15.52-4.7,5.33-9.7,10.43-14.88,15.29-5.58,5.22-15.23,4.71-20.88,1.68-3.48-1.87-4.51-5.25-3.12-9.02,2.31-6.3,7.11-10.33,12.37-14.05,14.16-10.02,30.56-15.12,46.32-21.73,9.27-3.88,17.94-9.25,26.7-14.26,6.14-3.51,8.04-3.8,13.32,0Z"/>
    <path class="cls-1" d="M150.95,193.02l2.23,8.53c-.44.22-.88.44-1.33.65-1.34-.86-2.67-1.71-4.23-2.71-.41,1.96-.78,3.73-1.34,6.44-2.76-2.51-4.88-4.43-7.56-6.86.58,3.5,1.04,6.34,1.51,9.17-.45.27-.9.55-1.35.82-1.88-1.85-3.76-3.7-5.22-5.14,1.37-1.57,2.35-2.81,3.46-3.92.7-.7,1.86-1.91,2.33-1.72,3.59,1.46,4.89-.02,4.66-3.61,2.58.73,5.29,2.95,6.84-1.65Z"/>
  </g>
</svg>